<svg width="62" height="62" viewBox="0 0 62 62" fill="none" xmlns="http://www.w3.org/2000/svg">
<path d="M8.07 50.3467C15.0647 46.3931 22.9653 44.3212 31 44.3333C39.3333 44.3333 47.1567 46.5167 53.93 50.3467M41 24.3333C41 26.9855 39.9464 29.529 38.0711 31.4044C36.1957 33.2798 33.6522 34.3333 31 34.3333C28.3478 34.3333 25.8043 33.2798 23.9289 31.4044C22.0536 29.529 21 26.9855 21 24.3333C21 21.6812 22.0536 19.1376 23.9289 17.2623C25.8043 15.3869 28.3478 14.3333 31 14.3333C33.6522 14.3333 36.1957 15.3869 38.0711 17.2623C39.9464 19.1376 41 21.6812 41 24.3333V24.3333ZM61 31C61 34.9397 60.224 38.8407 58.7164 42.4805C57.2087 46.1203 54.999 49.4274 52.2132 52.2132C49.4274 54.999 46.1203 57.2087 42.4805 58.7164C38.8407 60.224 34.9397 61 31 61C27.0603 61 23.1593 60.224 19.5195 58.7164C15.8797 57.2087 12.5726 54.999 9.7868 52.2132C7.00104 49.4274 4.79125 46.1203 3.28361 42.4805C1.77597 38.8407 1 34.9397 1 31C1 23.0435 4.1607 15.4129 9.7868 9.7868C15.4129 4.16071 23.0435 1 31 1C38.9565 1 46.5871 4.16071 52.2132 9.7868C57.8393 15.4129 61 23.0435 61 31Z" stroke="white" stroke-width="2" stroke-linecap="round" stroke-linejoin="round"/>
</svg>
